<?xml version="1.0" encoding="utf-8"?>
<!-- Generator: Adobe Illustrator 26.0.3, SVG Export Plug-In . SVG Version: 6.00 Build 0)  -->
<svg version="1.1" id="Layer_1" xmlns="http://www.w3.org/2000/svg" xmlns:xlink="http://www.w3.org/1999/xlink" x="0px" y="0px"
	 viewBox="0 0 560 400" style="enable-background:new 0 0 560 400;" xml:space="preserve">
<style type="text/css">
	.st0{fill:#330000;}
	.st1{fill:#FF9A00;}
</style>
<g transform="matrix(1.00000012 0 0 1.00000012 159.999963 83)">
	<path class="st0" d="M-60.9-83h361.7c54.9,0,99.1,32.5,99.1,72.6v254.7c0,40.2-44.4,72.6-99.1,72.6H-60.9
		c-54.9,0-99.1-32.5-99.1-72.6V-10.4C-160-50.5-115.6-83-60.9-83z"/>
	<g>
		<path class="st1" d="M110.8,157h-62l-12.7,40.2c-0.3,1.5-1.7,2.6-3.2,2.4H1.7c-1.8,0-2.3-1-1.8-3.1L53.5,38c0.5-1.7,1-3.6,1.7-5.6
			c0.7-3.6,1-7.4,1-11.1c-0.2-0.9,0.5-1.7,1.3-1.9h43.2c1.3,0,2,0.5,2.2,1.4l60.8,176.1c0.5,1.9,0,2.7-1.7,2.7h-34.8
			c-1.2,0.2-2.3-0.7-2.7-1.9L110.8,157z M58.5,122.3h42.3c-1-3.6-2.3-7.9-3.8-12.3c-1.5-4.6-3-9.6-4.5-14.7
			c-1.7-5.3-3.2-10.4-4.8-15.7c-1.7-5.3-3.2-10.3-4.5-15.2c-1.3-4.8-2.5-9.2-3.7-13.3h-0.3c-1.5,7.4-3.3,14.7-5.7,22.1
			c-2.5,8.2-5,16.8-7.7,25.3C63.5,107.1,61,115.1,58.5,122.3z"/>
		<path class="st1" d="M200,48.6c-5.5,0.2-10.8-2.1-14.8-6c-3.8-4.3-5.8-9.9-5.7-15.7c-0.2-5.8,2-11.3,6-15.2s9.3-6,14.8-6
			c6.5,0,11.5,2.1,15.2,6c3.7,4.1,5.7,9.6,5.5,15.2c0.2,5.8-1.8,11.5-5.8,15.7C211.3,46.7,205.7,49,200,48.6L200,48.6z M181.3,197
			V65.4c0-1.7,0.7-2.4,2.2-2.4h33c1.5,0,2.2,0.9,2.2,2.4V197c0,1.9-0.7,2.7-2.2,2.7h-32.7C182.2,199.7,181.3,198.7,181.3,197z"/>
	</g>
</g>
</svg>
