<?xml version="1.0" encoding="UTF-8" standalone="no"?>
<svg
   xmlns:dc="http://purl.org/dc/elements/1.1/"
   xmlns:cc="http://creativecommons.org/ns#"
   xmlns:rdf="http://www.w3.org/1999/02/22-rdf-syntax-ns#"
   xmlns:svg="http://www.w3.org/2000/svg"
   xmlns="http://www.w3.org/2000/svg"
   xmlns:sodipodi="http://sodipodi.sourceforge.net/DTD/sodipodi-0.dtd"
   xmlns:inkscape="http://www.inkscape.org/namespaces/inkscape"
   viewBox="0 0 700 700"
   version="1.1"
   id="svg20"
   sodipodi:docname="adobe-photoshop-logo-2021.svg"
   width="700"
   height="700"
   inkscape:version="0.92.4 (5da689c313, 2019-01-14)"
   inkscape:export-filename="G:\Users\suitedoalex\sites\adobe-photoshop-logo-0.png"
   inkscape:export-xdpi="561.73712"
   inkscape:export-ydpi="561.73712">
  <metadata
     id="metadata24">
    <rdf:RDF>
      <cc:Work
         rdf:about="">
        <dc:format>image/svg+xml</dc:format>
        <dc:type
           rdf:resource="http://purl.org/dc/dcmitype/StillImage" />
        <dc:title>Asset 116</dc:title>
      </cc:Work>
    </rdf:RDF>
  </metadata>
  <sodipodi:namedview
     pagecolor="#ffffff"
     bordercolor="#666666"
     borderopacity="1"
     objecttolerance="10"
     gridtolerance="10"
     guidetolerance="10"
     inkscape:pageopacity="0"
     inkscape:pageshadow="2"
     inkscape:window-width="1600"
     inkscape:window-height="837"
     id="namedview22"
     showgrid="false"
     inkscape:zoom="0.71315043"
     inkscape:cx="393.14717"
     inkscape:cy="320.92781"
     inkscape:window-x="-8"
     inkscape:window-y="-8"
     inkscape:window-maximized="1"
     inkscape:current-layer="svg20" />
  <defs
     id="defs4">
    <style
       id="style2">.cls-1{fill:#001e36;}.cls-2{fill:#31a8ff;}</style>
  </defs>
  <title
     id="title6">Asset 116</title>
  <g
     id="Layer_2"
     data-name="Layer 2"
     transform="matrix(2.0606602,0,0,2.0606602,102.72078,108.90276)"
     inkscape:export-filename="G:\Users\suitedoalex\sites\adobe-photoshop-logo-4.png"
     inkscape:export-xdpi="77.645012"
     inkscape:export-ydpi="77.645012">
    <g
       id="Surfaces">
      <g
         id="Photo_Surface"
         data-name="Photo Surface">
        <g
           id="Outline_no_shadow"
           data-name="Outline no shadow">
          <rect
             class="cls-1"
             width="240"
             height="234"
             rx="42.5"
             id="rect8"
             x="0"
             y="0"
             style="fill:#001e36" />
        </g>
      </g>
    </g>
    <g
       id="Outlined_Mnemonics_Logos"
       data-name="Outlined Mnemonics &amp; Logos">
      <g
         id="Ps">
        <path
           class="cls-2"
           d="M 54.04167,164.09521 V 61.21631 c 0,-0.74976 0.32226,-1.127 0.96631,-1.127 1.71533,0 3.28157,-0.02515 5.64388,-0.08057 q 3.53979,-0.07911 7.64746,-0.16089 4.106,-0.07947 8.69433,-0.16113 4.5879,-0.07911 9.09619,-0.08057 12.23366,0 20.60791,3.05908 a 35.755,35.755 0 0 1 13.44385,8.21094 31.496,31.496 0 0 1 7.3252,11.35059 37.64894,37.64894 0 0 1 2.25439,12.96045 q 0,12.88256 -5.957,21.252 a 33.65844,33.65844 0 0 1 -16.1001,12.15552 c -6.7622,2.52319 -14.27636,3.3789 -22.54,3.3789 q -3.54345,0 -4.99121,-0.0806 -1.44873,-0.0795 -4.34668,-0.0806 v 32.12183 a 1.28093,1.28093 0 0 1 -1.44922,1.449 H 55.16862 c -0.75195,-3e-5 -1.12695,-0.42776 -1.12695,-1.28812 z m 21.74446,-84.686 v 33.55493 q 2.09034,0.16224 3.86377,0.16089 h 5.313 a 37.7594,37.7594 0 0 0 11.51172,-1.83765 17.35824,17.35824 0 0 0 8.21094,-5.313 q 3.13915,-3.70167 3.13965,-10.304 a 16.28281,16.28281 0 0 0 -2.335,-8.85522 A 15.01394,15.01394 0 0 0 98.4868,81.09982 29.83951,29.83951 0 0 0 86.73389,79.0874 q -3.86427,0 -6.84229,0.08032 -2.98095,0.08313 -4.10547,0.24146 z"
           id="path13"
           inkscape:connector-curvature="0"
           style="fill:#31a8ff" />
        <path
           class="cls-2"
           d="m 191.97114,106.863 a 37.6431,37.6431 0 0 0 -9.57959,-3.3811 50.875,50.875 0 0 0 -11.18946,-1.28809 20.82175,20.82175 0 0 0 -6.03759,0.72461 5.42475,5.42475 0 0 0 -3.13965,2.01245 5.0699,5.0699 0 0 0 -0.80469,2.73706 4.27537,4.27537 0 0 0 0.96582,2.57593 10.95825,10.95825 0 0 0 3.38086,2.65649 67.449,67.449 0 0 0 7.084,3.30054 70.20083,70.20083 0 0 1 15.37549,7.32544 23.38242,23.38242 0 0 1 7.88916,8.2915 22.10738,22.10738 0 0 1 2.33451,10.30417 23.143,23.143 0 0 1 -3.86377,13.28247 25.41573,25.41573 0 0 1 -11.18995,8.93531 q -7.32788,3.219 -18.1123,3.22021 a 65.50368,65.50368 0 0 1 -13.60449,-1.28808 43.40843,43.40843 0 0 1 -10.22363,-3.22 2.08508,2.08508 0 0 1 -1.127,-1.93213 v -17.38791 a 0.94571,0.94571 0 0 1 0.40283,-0.8855 0.781,0.781 0 0 1 0.88526,0.0806 43.01131,43.01131 0 0 0 12.397,4.9104 51.12181,51.12181 0 0 0 11.75293,1.52954 q 5.63379,0 8.2915,-1.449 a 4.5512,4.5512 0 0 0 2.65674,-4.186 q 0,-2.09034 -2.415,-4.02491 -2.41479,-1.93212 -9.82129,-4.66918 a 59.18392,59.18392 0 0 1 -14.24853,-7.24488 24.5718,24.5718 0 0 1 -7.5669,-8.45263 22.20192,22.20192 0 0 1 -2.33447,-10.22339 23.08045,23.08045 0 0 1 3.38086,-12.075 24.57046,24.57046 0 0 1 10.46533,-9.177 q 7.08252,-3.53943 17.71,-3.542 a 78.40115,78.40115 0 0 1 12.397,0.8855 32.49681,32.49681 0 0 1 8.63066,2.33447 1.46829,1.46829 0 0 1 0.96582,0.8855 4.44869,4.44869 0 0 1 0.16113,1.20752 v 16.261 a 1.08221,1.08221 0 0 1 -0.48291,0.96606 1.556,1.556 0 0 1 -1.38568,6e-5 z"
           id="path15"
           inkscape:connector-curvature="0"
           style="fill:#31a8ff" />
      </g>
    </g>
  </g>
</svg>
