<?xml version="1.0" encoding="utf-8"?>
<!-- Generator: Adobe Illustrator 26.0.3, SVG Export Plug-In . SVG Version: 6.00 Build 0)  -->
<svg version="1.1"
	 id="svg20" inkscape:export-filename="G:\Users\suitedoalex\sites\adobe-photoshop-logo-0.png" inkscape:export-xdpi="561.73712" inkscape:export-ydpi="561.73712" xmlns:cc="http://creativecommons.org/ns#" xmlns:dc="http://purl.org/dc/elements/1.1/" xmlns:inkscape="http://www.inkscape.org/namespaces/inkscape" xmlns:rdf="http://www.w3.org/1999/02/22-rdf-syntax-ns#" xmlns:sodipodi="http://sodipodi.sourceforge.net/DTD/sodipodi-0.dtd" xmlns:svg="http://www.w3.org/2000/svg"
	 xmlns="http://www.w3.org/2000/svg" xmlns:xlink="http://www.w3.org/1999/xlink" x="0px" y="0px" viewBox="0 0 700 700"
	 style="enable-background:new 0 0 700 700;" xml:space="preserve">
<style type="text/css">
	.st0{fill:#001E36;}
	.st1{fill:#31A8FF;}
</style>
<sodipodi:namedview  bordercolor="#666666" borderopacity="1" gridtolerance="10" guidetolerance="10" id="namedview22" inkscape:current-layer="svg20" inkscape:cx="393.14717" inkscape:cy="320.92781" inkscape:pageopacity="0" inkscape:pageshadow="2" inkscape:window-height="837" inkscape:window-maximized="1" inkscape:window-width="1600" inkscape:window-x="-8" inkscape:window-y="-8" inkscape:zoom="0.71315043" objecttolerance="10" pagecolor="#ffffff" showgrid="false">
	</sodipodi:namedview>
<g id="Layer_2_00000012456914154652873940000018220326022357025212_" transform="matrix(2.0606602,0,0,2.0606602,102.72078,108.90276)" inkscape:export-filename="G:\Users\suitedoalex\sites\adobe-photoshop-logo-4.png" inkscape:export-xdpi="77.645012" inkscape:export-ydpi="77.645012">
	<g id="Surfaces">
		<g id="Photo_Surface">
			<g id="Outline_no_shadow">
				<path id="rect8" class="st0" d="M10.3-52.8h219.4c33.2,0,60.2,27.6,60.2,61.7v216.3c0,34.1-26.9,61.7-60.2,61.7H10.3
					c-33.2,0-60.2-27.6-60.2-61.7V8.8C-49.8-25.2-22.9-52.8,10.3-52.8z"/>
			</g>
		</g>
	</g>
	<g id="Outlined_Mnemonics_Logos">
		<g id="Ps">
			<path id="path13" inkscape:connector-curvature="0" class="st1" d="M26.6,185.4V36c0-1.1,0.5-1.6,1.4-1.6c2.4,0,4.6,0,8-0.1
				c3.3-0.1,6.9-0.2,10.8-0.2c3.9-0.1,8-0.2,12.3-0.2c4.3-0.1,8.6-0.1,12.9-0.1c11.5,0,21.3,1.5,29.2,4.4c7.1,2.5,13.6,6.5,19,11.9
				c4.6,4.7,8.1,10.3,10.4,16.5c2.1,6,3.2,12.4,3.2,18.8c0,12.5-2.8,22.8-8.4,30.9c-5.7,8.1-13.6,14.3-22.8,17.6
				c-9.6,3.7-20.2,4.9-31.9,4.9c-3.3,0-5.7,0-7.1-0.1c-1.4-0.1-3.4-0.1-6.2-0.1v46.6c0.1,1-0.5,2-1.5,2.1c-0.2,0-0.3,0-0.5,0H28.2
				C27.2,187.2,26.6,186.6,26.6,185.4L26.6,185.4z M57.4,62.4v48.7c2,0.2,3.8,0.2,5.5,0.2h7.5c5.5,0,11-0.9,16.3-2.7
				c4.5-1.4,8.5-4.1,11.6-7.7c3-3.6,4.4-8.6,4.4-15c0.1-4.5-1-9-3.3-12.9c-2.4-3.7-5.9-6.6-9.9-8.3c-5.3-2.1-11-3.1-16.6-2.9
				c-3.6,0-6.9,0-9.7,0.1C60.4,62.2,58.5,62.3,57.4,62.4L57.4,62.4z"/>
			<path id="path15" inkscape:connector-curvature="0" class="st1" d="M221.9,102.3c-4.3-2.3-8.8-3.9-13.6-4.9
				c-5.2-1.2-10.5-1.8-15.8-1.9c-2.9-0.1-5.8,0.3-8.5,1.1c-1.8,0.4-3.3,1.4-4.4,2.9c-0.7,1.2-1.1,2.6-1.1,4c0,1.4,0.5,2.7,1.4,3.7
				c1.3,1.6,3,2.9,4.8,3.9c3.2,1.8,6.6,3.4,10,4.8c7.6,2.6,15,6.2,21.8,10.6c4.6,3,8.5,7.1,11.2,12c2.3,4.6,3.4,9.8,3.3,15
				c0.1,6.8-1.8,13.6-5.5,19.3c-4,5.8-9.5,10.3-15.8,13c-6.9,3.1-15.5,4.7-25.6,4.7c-6.5,0.1-12.9-0.6-19.3-1.9
				c-5-0.9-9.9-2.5-14.5-4.7c-1-0.5-1.6-1.6-1.6-2.8v-25.2c-0.1-0.5,0.2-1,0.6-1.3c0.4-0.2,0.9-0.2,1.3,0.1
				c5.5,3.3,11.4,5.7,17.5,7.1c5.4,1.4,11,2.1,16.6,2.2c5.3,0,9.2-0.7,11.7-2.1c2.3-1.1,3.8-3.5,3.8-6.1c0-2-1.1-4-3.4-5.8
				c-2.3-1.9-6.9-4.1-13.9-6.8c-7.2-2.6-13.9-6.1-20.2-10.5c-4.5-3.2-8.1-7.4-10.7-12.3c-2.2-4.6-3.4-9.7-3.3-14.8
				c0-6.2,1.6-12.3,4.8-17.5c3.6-5.8,8.7-10.4,14.8-13.3c6.7-3.4,15-5.1,25.1-5.1c5.9,0,11.7,0.4,17.5,1.3c4.2,0.5,8.3,1.7,12.2,3.4
				c0.6,0.2,1.1,0.7,1.4,1.3c0.2,0.6,0.2,1.2,0.2,1.8v23.6c0,0.6-0.2,1.1-0.7,1.4C223.2,102.6,222.5,102.6,221.9,102.3L221.9,102.3z
				"/>
		</g>
	</g>
</g>
</svg>
